<svg xmlns="http://www.w3.org/2000/svg" viewBox="0 0 128 128">
  <defs>
    <linearGradient id="g" x1="0" y1="0" x2="1" y2="1">
      <stop offset="0" stop-color="#ff4b3a"/>
      <stop offset="1" stop-color="#b31217"/>
    </linearGradient>
  </defs>
  <path d="M78 20c4 8-2 18-10 20 0 0-6-6-16-6-18 0-34 16-34 36 0 22 19 34 39 34 25 0 49-20 49-49 0-9-2-18-7-26-7-11-21-13-21-9z" fill="url(#g)" stroke="#5a0a0a" stroke-width="3" stroke-linejoin="round"/>
  <path d="M64 26c-2-9 8-18 18-18 7 0 13 4 16 10" fill="none" stroke="#2e7d32" stroke-width="6" stroke-linecap="round"/>
  <circle cx="92" cy="18" r="3" fill="#2e7d32"/>
</svg>